<?xml version="1.0" encoding="utf-8"?>
<!-- Generator: Adobe Illustrator 24.2.2, SVG Export Plug-In . SVG Version: 6.00 Build 0)  -->
<svg version="1.1" id="Layer_1" xmlns="http://www.w3.org/2000/svg" xmlns:xlink="http://www.w3.org/1999/xlink" x="0px" y="0px"
	 viewBox="0 0 120 120" style="enable-background:new 0 0 120 120;" xml:space="preserve">
<style type="text/css">
	.st0{fill:#70C4FF;}
	.st1{fill:#85E57A;}
	.st2{fill:#5EACDD;}
	.st3{fill:#DAE7EF;}
	.st4{opacity:5.000000e-02;}
	.st5{fill:#FFFFFF;}
	.st6{opacity:5.000000e-02;enable-background:new    ;}
	.st7{fill:#FF5B64;}
	.st8{fill:#FFCC70;}
	.st9{fill:#63C663;}
	.st10{fill:#69E26E;}
</style>
<g>
	<g>
		<circle class="st0" cx="63.1" cy="62.7" r="39.2"/>
		<g>
			<path class="st1" d="M63.1,23.5c-3.1,0-6,0.4-8.9,1c-0.9,2-1.4,4.1-1.4,6.2c0.1,4.4,3.8,9,8.1,8.4c2.4,4,7.3,5.9,12,6
				s9.2-1.5,13.6-3c2,1.3,2.6,4,2.5,6.4s-0.8,4.8-0.7,7.2c0.1,2.4,1.2,5,3.5,5.8c1.7,0.6,3.6,0.1,5.5,0c1.7-0.1,3.4,0.2,5,0.9
				C102.2,40.9,84.7,23.5,63.1,23.5z"/>
			<path class="st1" d="M64.4,74.5c-1.4-1.8-1.6-4.4-1.5-6.7c0.1-2.3,0.3-4.8-0.6-6.9c-0.9-2.1-3.5-3.8-5.6-2.9
				c-0.4,2-3,2.5-5.1,2.5c-2.8,0.1-5.7,0.1-8.5,0.2c-2,0-4.2,0.1-6,1c-1.9,0.8-3.4,2.7-3.3,4.8c0.1,1.7,1.4,3.1,3,3.8
				c3.4,1.5,4.7-0.4,5.6,3.5c0.7,2.9,1,6,3.8,7.8c1.6,1,3.8,1.3,4.8,2.9c0.9,1.3,0.6,3.1,0.1,4.6s-1.2,3-1.2,4.5
				c0,1.6,1.1,3.3,2.6,3.4c1.2,0,2.2-0.9,2.8-2c1.1-2,1-4.3,1.3-6.6c0.3-2.2,1.1-4.7,3.1-5.6c1.4-0.7,2.9-0.5,4.4-0.6
				c1.5-0.2,3.1-0.9,3.5-2.3C68.2,77.7,65.7,76.3,64.4,74.5z"/>
		</g>
	</g>
	<g>
		<g>
			<path class="st2" d="M29.6,39.7l1.7-1.7c0.1-0.1,0.1-0.4,0-0.5l-1-1c-0.1-0.1-0.4-0.1-0.5,0L28,38.2c-0.1,0.1-0.1,0.4,0,0.5l1,1
				C29.2,39.9,29.4,39.9,29.6,39.7z"/>
			<path class="st2" d="M34.7,37.8l-3,3c-0.1,0.1-0.1,0.4,0,0.5l1,1c0.1,0.1,0.4,0.1,0.5,0l3-3c0.1-0.1,0.1-0.4,0-0.5l-1-1
				C35.1,37.6,34.8,37.6,34.7,37.8z"/>
			<path class="st2" d="M48.5,55.2l-1.7,1.7c-0.1,0.1-0.1,0.4,0,0.5l1,1c0.1,0.1,0.4,0.1,0.5,0l1.7-1.7c0.1-0.1,0.1-0.4,0-0.5l-1-1
				C48.9,55.1,48.6,55.1,48.5,55.2z"/>
			<path class="st2" d="M47.1,50.2l-3,3c-0.1,0.1-0.1,0.4,0,0.5l1,1c0.1,0.1,0.4,0.1,0.5,0l3-3c0.1-0.1,0.1-0.4,0-0.5l-1-1
				C47.5,50.1,47.3,50.1,47.1,50.2z"/>
		</g>
		<g>
			<path class="st3" d="M19.6,56.3c-0.2,0-0.4,0-0.5,0.1l-1.2,1.2c-0.3,0.3-0.2,0.7,0.1,0.9l6.6,2.9c0.1,0,0.2,0.1,0.3,0.3l2.9,6.6
				c0.1,0.3,0.6,0.4,0.9,0.1l1.2-1.2c0.1-0.1,0.2-0.3,0.1-0.5l-1.8-8.3c0-0.2-0.2-0.4-0.4-0.4L19.6,56.3z"/>
			<path class="st3" d="M44.4,41.5l-18.8-4.1c-0.2,0-0.5,0-0.7,0.2L21.5,41c-0.4,0.4-0.2,1,0.2,1.2l15.4,6.8
				c0.2,0.1,0.3,0.2,0.4,0.4l6.8,15.4c0.2,0.5,0.8,0.6,1.2,0.2l3.3-3.3c0.2-0.2,0.2-0.4,0.2-0.7L45,42.2
				C44.9,41.8,44.7,41.6,44.4,41.5z"/>
		</g>
		<g class="st4">
			<path d="M28.5,67.8c0.1,0.3,0.6,0.4,0.9,0.1l-0.6,0.6c-0.3,0.3-0.7,0.2-0.9-0.1l-2.9-6.6c0-0.1-0.1-0.2-0.3-0.3L18,58.5
				c-0.3-0.1-0.4-0.6-0.1-0.9l0.6-0.6c-0.3,0.3-0.2,0.7,0.1,0.9l6.7,3c0.1,0,0.2,0.1,0.3,0.3L28.5,67.8z"/>
			<path d="M44.9,64.1c0.2,0.5,0.8,0.6,1.2,0.2L45.5,65c-0.4,0.4-1,0.2-1.2-0.2l-6.8-15.3c-0.1-0.2-0.2-0.3-0.4-0.4l-15.3-6.8
				c-0.5-0.2-0.6-0.8-0.2-1.2l0.6-0.6c-0.4,0.4-0.2,1,0.2,1.2l15.4,6.8c0.1,0.1,0.3,0.2,0.4,0.4L44.9,64.1z"/>
		</g>
		<path class="st5" d="M52.3,40L25.4,63.1c-0.6,0.5-2,1-2.5,0.4l0,0c-0.5-0.5-0.1-1.9,0.4-2.5l23.1-26.9c1-1.1,2.4-1.9,3.8-2.1
			l2.5-0.3c1.2-0.1,2.1,0.7,1.9,1.9l-0.3,2.5C54.2,37.6,53.5,39,52.3,40z"/>
		<g>
			<path class="st0" d="M51.7,37.9c0,0-0.1,0.1-0.2,0c-0.1,0-0.2-0.1-0.2-0.3c0-0.4-0.2-1.2-0.8-1.7c-0.5-0.5-1.3-0.8-1.7-0.8
				c-0.1,0-0.2-0.1-0.2-0.2s0.1-0.2,0.2-0.2c0.5,0,1.4,0.3,2.1,0.9c0.7,0.7,1,1.6,0.9,2.2C51.8,37.9,51.8,37.9,51.7,37.9z"/>
		</g>
		<path class="st6" d="M54.7,33.7l-0.3,2.5c-0.2,1.4-0.9,2.8-2.1,3.8L25.4,63.1c-0.6,0.5-2,1-2.6,0.4l27.1-27.1c0,0,2.2-2.2,3.6-4.7
			C54.3,32,54.8,32.8,54.7,33.7z"/>
	</g>
	<g>
		<path class="st7" d="M83.6,31.7l-5.4,6c-0.4,0.4-1,0.4-1.4,0l-5.4-6c-1.3-1.5-2.1-3.4-2.1-5.4l0,0c0-4.5,3.6-8.1,8.1-8.1h0
			c4.5,0,8.1,3.6,8.1,8.1l0,0C85.7,28.3,85,30.2,83.6,31.7z"/>
		<circle class="st5" cx="77.6" cy="26.2" r="5"/>
		<circle class="st8" cx="79.2" cy="24.3" r="1.2"/>
		<path class="st9" d="M82.5,27.4c-0.2,0.8-0.5,1.5-1,2.1c-0.9,1.1-2.3,1.8-3.9,1.8c-0.7,0-1.4-0.2-2.1-0.4l5-4.7
			c0.2-0.2,0.5-0.2,0.7,0L82.5,27.4z"/>
		<path class="st10" d="M81.5,29.5c-0.9,1.1-2.3,1.8-3.9,1.8c-2,0-3.8-1.2-4.6-3l3.3-3.1c0.2-0.2,0.5-0.2,0.7,0L81.5,29.5z"/>
	</g>
</g>
</svg>
